HIERARCHY
ROOT Hips
{
	OFFSET 0.000000 0.000000 0.000000
	CHANNELS 6 Xposition Yposition Zposition Zrotation Yrotation Xrotation 
	JOINT LHipJoint
	{
		OFFSET 0.000000 0.000000 0.000000
		CHANNELS 3 Zrotation Yrotation Xrotation
		JOINT LeftUpLeg
		{
			OFFSET 1.363060 -1.794630 0.839290
			CHANNELS 3 Zrotation Yrotation Xrotation
			JOINT LeftLeg
			{
				OFFSET 2.448110 -6.726130 0.000000
				CHANNELS 3 Zrotation Yrotation Xrotation
				JOINT LeftFoot
				{
					OFFSET 2.562200 -7.039590 0.000000
					CHANNELS 3 Zrotation Yrotation Xrotation
					JOINT LeftToeBase
					{
						OFFSET 0.157640 -0.433110 2.322550
						CHANNELS 3 Zrotation Yrotation Xrotation
						End Site
						{
							OFFSET 0.000000 0.000000 0.000000
						}
					}
				}
			}
		}
	}
	JOINT RHipJoint
	{
		OFFSET 0.000000 0.000000 0.000000
		CHANNELS 3 Zrotation Yrotation Xrotation
		JOINT RightUpLeg
		{
			OFFSET -1.305520 -1.794630 0.839290
			CHANNELS 3 Zrotation Yrotation Xrotation
			JOINT RightLeg
			{
				OFFSET -2.542530 -6.985550 0.000000
				CHANNELS 3 Zrotation Yrotation Xrotation
				JOINT RightFoot
				{
					OFFSET -2.568260 -7.056230 0.000000
					CHANNELS 3 Zrotation Yrotation Xrotation
					JOINT RightToeBase
					{
						OFFSET -0.164730 -0.452590 2.363150
						CHANNELS 3 Zrotation Yrotation Xrotation
						End Site
						{
							OFFSET 0.000000 0.000000 0.000000
						}
					}
				}
			}
		}
	}
	JOINT LowerBack
	{
		OFFSET 0.000000 0.000000 0.000000
		CHANNELS 3 Zrotation Yrotation Xrotation
		JOINT Spine
		{
			OFFSET 0.028270 2.035590 -0.193380
			CHANNELS 3 Zrotation Yrotation Xrotation
			JOINT Spine1
			{
				OFFSET 0.056720 2.048850 -0.042750
				CHANNELS 3 Zrotation Yrotation Xrotation
				JOINT Neck
				{
					OFFSET 0.000000 0.000000 0.000000
					CHANNELS 3 Zrotation Yrotation Xrotation
					JOINT Neck1
					{
						OFFSET -0.054170 1.746240 0.172020
						CHANNELS 3 Zrotation Yrotation Xrotation
						JOINT Head
						{
							OFFSET 0.104070 1.761360 -0.123970
							CHANNELS 3 Zrotation Yrotation Xrotation
							End Site
							{
								OFFSET 0.000000 0.000000 0.000000
							}
						}
					}
				}
				JOINT LeftShoulder
				{
					OFFSET 0.000000 0.000000 0.000000
					CHANNELS 3 Zrotation Yrotation Xrotation
					JOINT LeftArm
					{
						OFFSET 3.362410 1.200890 -0.311210
						CHANNELS 3 Zrotation Yrotation Xrotation
						JOINT LeftForeArm
						{
							OFFSET 4.983000 -0.000000 -0.000000
							CHANNELS 3 Zrotation Yrotation Xrotation
							JOINT LeftHand
							{
								OFFSET 3.483560 -0.000000 -0.000000
								CHANNELS 3 Zrotation Yrotation Xrotation
								JOINT LeftFingerBase
								{
									OFFSET 0.000000 0.000000 0.000000
									CHANNELS 3 Zrotation Yrotation Xrotation
									JOINT LeftHandIndex1
									{
										OFFSET 0.715260 -0.000000 -0.000000
										CHANNELS 3 Zrotation Yrotation Xrotation
										End Site
										{
											OFFSET 0.000000 0.000000 0.000000
										}
									}
								}
								JOINT LThumb
								{
									OFFSET 0.000000 0.000000 0.000000
									CHANNELS 3 Zrotation Yrotation Xrotation
									End Site
									{
										OFFSET 0.000000 0.000000 0.000000
									}
								}
							}
						}
					}
				}
				JOINT RightShoulder
				{
					OFFSET 0.000000 0.000000 0.000000
					CHANNELS 3 Zrotation Yrotation Xrotation
					JOINT RightArm
					{
						OFFSET -3.136600 1.374050 -0.404650
						CHANNELS 3 Zrotation Yrotation Xrotation
						JOINT RightForeArm
						{
							OFFSET -5.241900 -0.000000 -0.000000
							CHANNELS 3 Zrotation Yrotation Xrotation
							JOINT RightHand
							{
								OFFSET -3.444170 -0.000000 -0.000000
								CHANNELS 3 Zrotation Yrotation Xrotation
								JOINT RightFingerBase
								{
									OFFSET 0.000000 0.000000 0.000000
									CHANNELS 3 Zrotation Yrotation Xrotation
									JOINT RightHandIndex1
									{
										OFFSET -0.622530 -0.000000 -0.000000
										CHANNELS 3 Zrotation Yrotation Xrotation
										End Site
										{
											OFFSET 0.000000 0.000000 0.000000
										}
									}
								}
								JOINT RThumb
								{
									OFFSET 0.000000 0.000000 0.000000
									CHANNELS 3 Zrotation Yrotation Xrotation
									End Site
									{
										OFFSET 0.000000 0.000000 0.000000
									}
								}
							}
						}
					}
				}
			}
		}
	}
}
MOTION
Frames: 10
Frame Time: 0.008333
12.787352 11.102865 11.549444 4.973303 20.136830 -14.544871 -0.590141 -1.870301 -3.587345 14.554615 -0.527735 -57.257408 15.352573 19.813375 73.429564 4.127712 -16.723756 23.077589 3.838300 -11.942000 -35.527200 0.686293 1.427474 -0.364970 -14.369837 0.030013 -67.301837 -28.674078 -18.053583 114.090511 -1.335116 3.583372 -5.365919 -0.200200 2.881000 -7.947700 -8.837057 -4.982161 51.704474 0.936182 -8.630731 1.903581 6.573744 -5.306343 0.292939 -12.840765 -23.707976 6.282896 22.304093 -37.195446 -3.841576 9.859400 -18.017100 6.520200 -1.167742 -3.172530 3.644232 -23.613668 -1.903787 -1.870144 52.174000 -48.859909 -43.427349 0.768124 -4.347687 -10.931693 11.298675 10.043395 2.904800 -7.125000 0.000000 0.000000 -14.760200 44.267300 0.273100 -2.624286 1.676503 1.421440 77.783565 -14.650978 -17.725488 -124.574841 57.689730 -95.030803 -0.338645 -0.733775 13.386835 2.621651 18.274445 0.908600 7.125000 0.000000 0.000000 19.886600 -11.693700 16.494600 
12.822492 11.093684 11.563479 3.863256 19.381348 -14.346666 -0.444512 -1.730642 -3.517019 15.743570 0.129692 -58.451533 16.283404 19.981988 76.163972 4.112565 -18.238628 22.820582 4.055600 -12.234000 -36.564800 0.664218 1.421064 -0.375094 -12.981431 1.168182 -67.355134 -28.429931 -18.117300 113.400423 -1.164237 2.654375 -6.009082 -0.509800 4.576700 -12.705200 -7.909761 -5.148102 51.231820 1.016633 -8.380857 1.840785 6.356134 -5.160478 0.018328 -12.962079 -23.680939 6.268715 22.551497 -37.303473 -3.923232 9.930300 -18.057200 6.651100 -1.107704 -3.249160 3.571399 -24.524788 -1.792920 -1.552041 54.106325 -49.759428 -45.456872 0.831846 -4.271639 -11.304842 11.046340 9.895322 2.785300 -7.125000 0.000000 0.000000 -14.967300 44.025800 0.368500 -2.594723 1.708391 1.411176 77.438444 -13.321697 -16.216139 -122.456409 58.360148 -93.629829 -0.258062 -0.750751 12.568385 2.128926 18.411269 0.729100 7.125000 0.000000 0.000000 19.529800 -11.550400 16.220000 
12.848345 11.059177 11.574348 3.074900 18.639116 -14.002937 -0.293553 -1.572954 -3.409067 16.620090 1.016193 -59.899114 17.323197 20.125692 79.264551 4.003033 -19.291819 23.097877 3.997200 -12.156700 -36.288700 0.612136 1.392178 -0.374269 -12.005160 1.825620 -68.123203 -28.304278 -18.151483 113.081984 -0.965875 1.735653 -6.274284 -0.998000 6.357400 -17.825100 -7.339831 -5.140874 50.930411 1.075898 -8.102368 1.716973 6.221191 -4.999964 -0.411899 -12.921715 -23.711722 6.270086 22.723809 -37.427718 -4.045774 9.951800 -18.106700 6.681600 -1.026350 -3.324713 3.494438 -25.275900 -1.674279 -1.043309 55.975606 -50.600558 -47.420153 0.879553 -4.220144 -11.507752 10.961735 9.856724 2.737700 -7.125000 0.000000 0.000000 -15.057200 43.934600 0.405600 -2.578246 1.765590 1.397405 77.411099 -12.341465 -14.624040 -120.543594 58.887892 -92.328785 -0.129385 -0.764162 11.477570 0.881200 18.613080 0.284000 7.125000 0.000000 0.000000 18.676800 -11.325300 15.514700 
12.904695 11.113734 11.601573 3.728189 18.871660 -14.150795 -0.433820 -1.537469 -3.163963 15.642975 0.828457 -59.809956 18.363803 20.257116 82.474594 3.918559 -20.152528 22.169251 3.859400 -11.971000 -35.629300 0.648368 1.371641 -0.440554 -13.523355 1.714979 -67.153900 -28.266210 -18.221622 112.790127 -1.503514 4.224147 -5.722095 -0.683200 5.284700 -14.722300 -7.690229 -5.287359 51.281984 1.019853 -8.513027 1.615919 6.138012 -5.119362 -0.757960 -13.031208 -23.611269 6.367626 22.724571 -37.298880 -4.096747 10.008400 -18.047900 6.595000 -1.013649 -3.331927 3.384476 -26.188827 -1.362088 -0.328242 57.955444 -51.501913 -49.458495 0.916582 -4.184958 -11.888122 11.145775 9.906005 2.785800 -7.125000 0.000000 0.000000 -14.914800 43.978400 0.385000 -2.595072 1.832264 1.379306 77.009180 -11.519444 -12.772133 -118.449946 59.439857 -90.895589 0.003394 -0.766607 10.143088 -0.302603 18.853887 -0.148000 7.125000 0.000000 0.000000 17.859700 -11.062500 14.860600 
12.959885 11.142225 11.611598 4.090925 18.737158 -14.055824 -0.483557 -1.452927 -2.946370 15.040048 1.077790 -60.160592 19.518804 20.319835 85.971381 3.829921 -21.159538 20.916834 3.565300 -11.558400 -34.187100 0.653470 1.337970 -0.480163 -14.649228 1.933224 -67.249589 -28.315087 -18.235650 112.903590 -1.764368 5.842527 -4.334388 -0.602600 4.969200 -13.820600 -7.940154 -5.305804 51.561413 1.002577 -8.691164 1.504311 6.141710 -5.159014 -1.096202 -12.950622 -23.555562 6.165780 22.661201 -37.191059 -4.058129 9.943100 -17.981200 6.569500 -0.982300 -3.371488 3.271671 -26.990399 -1.070209 0.162845 59.945655 -52.384364 -51.523199 0.961037 -4.154127 -12.288256 11.300438 9.989265 2.832900 -7.125000 0.000000 0.000000 -14.815100 44.057900 0.352600 -2.583696 1.909200 1.357897 76.614968 -10.261491 -11.093788 -115.953198 60.012448 -89.211008 0.108604 -0.781025 8.889274 -0.720696 19.195114 -0.323400 7.125000 0.000000 0.000000 17.525900 -10.713500 14.684900 
13.012858 11.138743 11.613814 3.917056 18.116843 -13.490319 -0.400677 -1.322335 -2.791530 15.081370 1.980283 -61.312763 20.743641 20.300194 89.648920 3.708075 -22.102176 19.959636 3.056900 -10.786600 -31.563600 0.611227 1.287983 -0.491100 -14.846716 2.375114 -68.415371 -28.374117 -18.218955 113.169120 -1.645046 5.572836 -3.200559 -1.126300 6.741000 -18.950200 -7.688795 -5.305685 51.316553 1.000570 -8.596843 1.394384 5.947958 -5.081310 -1.348297 -12.563200 -23.751783 5.658916 22.692054 -37.471610 -4.103238 9.719300 -18.066900 6.662400 -0.932127 -3.462765 3.182192 -27.505646 -1.062125 0.511159 61.580262 -53.074432 -53.201551 1.024149 -4.106657 -12.512504 11.095483 10.123731 2.784900 -7.125000 0.000000 0.000000 -15.078500 44.128900 0.332100 -2.558789 2.001587 1.333806 76.424722 -8.848591 -9.608766 -113.390885 60.494356 -87.522937 0.154466 -0.754336 7.943490 -0.343280 18.552745 -0.197900 7.125000 0.000000 0.000000 17.780400 -11.369200 14.669200 
13.058761 11.139376 11.623311 3.475505 17.451881 -13.241972 -0.310085 -1.172605 -2.639950 15.399321 3.036067 -62.134413 21.907059 20.226309 93.123213 3.589987 -22.609937 19.126681 2.600000 -10.017500 -29.033400 0.570536 1.235137 -0.488161 -14.847288 2.968348 -69.527089 -28.476063 -18.169898 113.617895 -1.692918 6.143608 -1.975334 -1.234300 7.045500 -19.850400 -7.331565 -5.309797 51.237952 1.047091 -8.423296 1.295865 5.930857 -4.981325 -1.691630 -12.640464 -23.934641 5.494920 22.941825 -37.881666 -4.299537 9.658700 -18.223100 6.827000 -0.900205 -3.568102 3.106876 -28.182182 -1.007277 1.137505 63.065631 -53.687132 -54.641642 1.057705 -4.068591 -12.661029 11.123857 10.232180 2.799500 -7.125000 0.000000 0.000000 -15.105100 44.207700 0.302600 -2.499862 2.074982 1.297597 75.806676 -7.777852 -7.832061 -110.041220 61.041505 -85.313002 0.233225 -0.688222 7.226543 -0.547624 17.467577 -0.268800 7.125000 0.000000 0.000000 17.685500 -12.460400 14.160700 
13.097911 11.149084 11.634708 3.160834 16.677131 -13.284270 -0.226041 -1.019436 -2.489188 15.645660 4.237058 -62.480952 23.002554 20.110800 96.285236 3.537269 -22.152478 17.404446 2.564300 -9.953800 -28.827300 0.549835 1.181400 -0.485419 -15.259003 3.932445 -70.749249 -28.649800 -18.081926 114.362709 -1.897953 7.809046 0.095455 -0.617300 5.028200 -13.989000 -7.181214 -5.139072 51.303983 1.095533 -8.113197 1.257986 6.028708 -4.836811 -1.982561 -13.088374 -23.981460 5.651200 23.411443 -38.185136 -4.735523 9.838200 -18.335000 6.912600 -0.883037 -3.664376 3.038086 -28.982169 -0.906820 1.955440 64.656417 -54.341303 -56.118988 1.047970 -4.042825 -12.633542 11.494550 10.199098 2.885700 -7.125000 0.000000 0.000000 -14.756500 44.195200 0.299900 -2.420579 2.131967 1.276137 75.144363 -6.799418 -6.156435 -106.079562 61.517570 -82.622855 0.408709 -0.713492 6.793290 -1.531347 18.173155 -0.651800 7.125000 0.000000 0.000000 16.915700 -11.729800 13.751800 
13.130940 11.151089 11.660034 3.245033 16.346994 -13.228152 -0.210825 -0.920276 -2.331922 15.470090 4.919901 -62.631774 23.990950 19.952560 99.057932 3.559329 -20.997267 14.348979 3.097100 -10.850500 -31.777400 0.537690 1.161001 -0.501199 -15.630316 4.186641 -70.981403 -28.656279 -18.086883 114.397889 -1.819624 7.545912 0.926595 -0.855800 5.899500 -16.493000 -7.421219 -4.966301 51.546799 1.138843 -7.987244 1.164460 6.292921 -4.774684 -2.363552 -13.354305 -24.012083 5.740580 23.666464 -38.342618 -5.053829 9.931400 -18.385200 6.893300 -0.842582 -3.733776 2.938869 -29.640637 -0.598358 2.781072 66.478336 -55.099290 -57.877958 1.073254 -4.019699 -12.526834 11.697532 10.373522 2.960900 -7.125000 0.000000 0.000000 -14.657000 44.372900 0.232000 -2.367581 2.199230 1.259051 74.928009 -5.925360 -4.536514 -102.793530 61.713579 -80.294224 0.579692 -0.808147 6.524632 -2.210714 19.882295 -1.012200 7.125000 0.000000 0.000000 16.300100 -9.975400 13.816500 
13.156371 11.169134 11.677656 3.039151 15.996004 -12.826023 -0.196112 -0.828307 -2.206069 15.562555 5.483824 -62.834462 24.752079 19.804759 101.171114 3.582655 -19.924415 11.699547 3.353400 -11.246300 -33.115200 0.524192 1.128605 -0.475119 -16.157869 4.802785 -72.342092 -28.740060 -18.042949 114.784385 -1.868379 8.185484 2.488471 -0.678700 5.267600 -14.673300 -7.548944 -4.887778 51.555984 1.227490 -7.905668 1.003757 6.676000 -4.730344 -2.883353 -13.559573 -24.085280 5.896420 23.743704 -38.510575 -5.201244 9.931800 -18.460100 6.881300 -0.782702 -3.789412 2.820954 -30.258730 -0.032121 3.528488 68.289623 -55.861537 -59.659442 1.125584 -3.978173 -12.405650 11.583289 10.614886 2.954300 -7.125000 0.000000 0.000000 -14.886100 44.561800 0.164800 -2.306927 2.261285 1.219777 74.652433 -5.323022 -2.349580 -99.670147 61.739099 -78.022329 0.725245 -0.849733 6.124109 -2.855402 20.874018 -1.350600 7.125000 0.000000 0.000000 15.780100 -8.948000 13.677000 
